<mxfile host="app.diagrams.net" modified="2023-05-29T01:53:40.891Z" agent="Mozilla/5.0 (Windows NT 10.0; Win64; x64) AppleWebKit/537.36 (KHTML, like Gecko) Chrome/115.0.0.0 Safari/537.36 Edg/115.0.0.0" version="21.3.5" etag="M90OG2LCw3yKbUOPygnA" type="github">
  <diagram name="第 1 页" id="GfBRY6zPWYfYK-AR5F9C">
    <mxGraphModel>
      <root>
        <mxCell id="0" />
        <mxCell id="1" parent="0" />
      </root>
    </mxGraphModel>
  </diagram>
</mxfile>
